<svg version="1" xmlns="http://www.w3.org/2000/svg" width="346.667" height="346.667" viewBox="0 0 260.000000 260.000000"><path d="M104.5 1.6C58.5 11.4 21.2 44.3 6.6 88 1.8 102.3 0 113.7 0 129.5s1.8 27.2 6.6 41.5c10.9 32.7 34.5 59.6 66.1 75.4 18.3 9.2 34.8 12.9 56.8 12.9 23.8.1 40.1-3.8 60.6-14.5 32.7-17 56.3-46.9 66.2-83.8 2.9-11 3.1-12.3 3.1-31.5s-.2-20.5-3.1-31.5c-13.2-49.4-51.5-86.1-100.2-96-12.4-2.5-40.5-2.7-51.6-.4zm5.2 91.2c2.6 3.1 13.6 16.9 24.3 30.5l19.5 24.8.3-30.5.2-30.6h14v89h-4.6c-2.5 0-5.4-.4-6.4-1-1-.5-12.5-14.5-25.6-31.2l-23.9-30.2-.3 31.2-.2 31.2H93V87h11.9l4.8 5.8z"/></svg>